<?xml version="1.0" standalone="no"?>
<!DOCTYPE svg PUBLIC "-//W3C//DTD SVG 20010904//EN"
 "http://www.w3.org/TR/2001/REC-SVG-20010904/DTD/svg10.dtd">
<svg version="1.0" xmlns="http://www.w3.org/2000/svg"
 width="40px" height="24px" viewBox="0 0 287.000000 175.000000"
 preserveAspectRatio="xMidYMid meet">

<g transform="translate(0.000000,175.000000) scale(0.100000,-0.100000)"
fill="#fff" stroke="none">
<path d="M1200 1739 c-287 -27 -569 -141 -805 -324 -149 -116 -371 -369 -390
-446 -9 -36 24 -72 124 -137 47 -30 88 -56 90 -58 2 -1 -43 -82 -99 -178 -56
-96 -99 -180 -95 -186 13 -21 31 -8 61 43 17 28 63 107 103 174 l71 123 128
-67 c70 -36 128 -67 130 -69 2 -1 -28 -75 -67 -163 -70 -159 -79 -185 -63
-195 17 -10 30 13 96 164 37 85 72 159 76 164 5 5 44 -6 92 -27 46 -19 117
-47 158 -61 41 -14 74 -29 74 -33 -1 -5 -22 -74 -48 -155 -51 -163 -54 -181
-28 -176 13 2 30 44 70 164 l52 161 96 -23 c53 -13 123 -26 156 -30 57 -6 59
-8 54 -33 -56 -287 -59 -302 -48 -313 22 -22 32 6 63 168 l30 159 167 -2 c151
-2 167 -4 171 -20 2 -10 15 -94 30 -188 21 -134 30 -170 42 -173 9 -2 19 3 21
10 3 7 -8 94 -24 192 -15 99 -26 181 -24 184 3 2 42 10 88 18 46 8 96 19 113
25 16 5 31 6 33 2 66 -170 140 -328 155 -331 28 -5 21 19 -48 186 -35 86 -61
159 -57 163 4 3 36 16 72 29 36 12 104 42 152 66 l87 44 29 -53 c16 -28 53
-96 82 -150 48 -91 71 -113 78 -75 2 8 -29 73 -67 144 -38 71 -72 136 -76 145
-4 11 10 26 48 51 30 20 79 56 109 81 l54 44 94 -139 c87 -128 116 -156 127
-123 2 6 -39 73 -92 149 l-94 138 81 89 c89 97 127 148 194 257 l44 73 -91 59
c-125 80 -334 191 -484 256 -391 169 -752 236 -1095 203z m381 -209 c260 -44
543 -155 827 -323 56 -33 102 -63 102 -66 0 -15 -145 -174 -205 -225 -266
-226 -566 -336 -914 -336 -345 0 -704 104 -1108 322 -116 63 -131 74 -122 90
5 10 51 61 101 114 241 252 546 406 881 444 104 12 307 3 438 -20z"/>
<path d="M2226 1121 c-24 -27 -140 -86 -206 -105 -261 -78 -676 -60 -1377 60
-295 50 -296 42 -3 -31 360 -91 628 -129 900 -129 279 0 449 35 590 119 48 29
134 105 119 105 -3 0 -14 -9 -23 -19z"/>
<path d="M2197 939 c-90 -54 -247 -112 -372 -139 -145 -31 -442 -39 -625 -15
-222 27 -468 82 -729 160 -46 14 -86 23 -88 21 -5 -5 227 -96 332 -130 109
-35 301 -81 432 -103 162 -27 471 -24 610 5 172 37 303 91 436 180 57 38 88
63 75 62 -2 -1 -34 -19 -71 -41z"/>
</g>
</svg>
