<?xml version="1.0" standalone="no"?>
<!DOCTYPE svg PUBLIC "-//W3C//DTD SVG 20010904//EN"
 "http://www.w3.org/TR/2001/REC-SVG-20010904/DTD/svg10.dtd">
<svg version="1.0" xmlns="http://www.w3.org/2000/svg"
 width="56px" height="32px" viewBox="0 0 225.000000 225.000000"
 preserveAspectRatio="xMidYMid meet">

<g transform="translate(0.000000,225.000000) scale(0.100000,-0.100000)"
fill="#fff" stroke="none">
<path d="M1020 1630 l0 -160 65 0 65 0 0 160 0 160 -65 0 -65 0 0 -160z"/>
<path d="M1617 1545 c-31 -63 -57 -117 -57 -119 0 -4 108 -56 116 -56 5 0 114
218 114 228 0 6 -102 62 -113 62 -1 0 -28 -52 -60 -115z"/>
<path d="M525 1624 c-27 -13 -54 -25 -59 -27 -7 -2 76 -200 93 -219 5 -6 106
34 119 46 3 4 -88 207 -97 217 -3 4 -28 -4 -56 -17z"/>
<path d="M1340 1385 c0 -2 19 -14 42 -26 61 -31 151 -126 187 -197 104 -206
67 -435 -96 -594 -26 -26 -68 -59 -93 -73 l-45 -26 45 7 c129 19 340 99 491
185 101 57 267 180 323 237 l38 40 -68 57 c-210 173 -473 312 -689 364 -131
31 -135 32 -135 26z"/>
<path d="M783 1359 c-245 -65 -544 -239 -716 -417 l-49 -49 94 -70 c253 -188
526 -312 768 -347 l45 -7 -53 32 c-177 105 -278 321 -243 516 23 130 93 245
194 319 66 49 63 51 -40 23z"/>
<path d="M1053 1289 c-194 -38 -323 -225 -292 -421 21 -130 112 -241 236 -288
85 -32 205 -26 287 14 148 73 230 230 204 391 -9 61 -56 161 -89 191 -18 16
-19 16 -19 -15 0 -24 -9 -42 -34 -67 -29 -29 -41 -34 -79 -34 -108 0 -162 124
-86 199 l28 29 -37 6 c-45 7 -64 6 -119 -5z"/>
</g>
</svg>
